<svg width="100%" height="100%" viewBox="0 0 18 18" fill="none" xmlns="http://www.w3.org/2000/svg">
<g clip-path="url(#clip0_1535_2453)">
<path d="M11.8125 4.5C11.8125 2.9467 10.5533 1.6875 9 1.6875C7.4467 1.6875 6.1875 2.9467 6.1875 4.5V9C6.1875 10.5533 7.4467 11.8125 9 11.8125C10.5533 11.8125 11.8125 10.5533 11.8125 9V4.5Z" stroke="currentColor" stroke-width="1.6875" stroke-linecap="round" stroke-linejoin="round"/>
<path d="M9 14.625V16.875" stroke="currentColor" stroke-width="1.6875" stroke-linecap="round" stroke-linejoin="round"/>
<path d="M14.625 9C14.625 10.4918 14.0324 11.9226 12.9775 12.9775C11.9226 14.0324 10.4918 14.625 9 14.625C7.50816 14.625 6.07742 14.0324 5.02252 12.9775C3.96763 11.9226 3.375 10.4918 3.375 9" stroke="currentColor" stroke-width="1.6875" stroke-linecap="round" stroke-linejoin="round"/>
</g>
<defs>
<clipPath id="clip0_1535_2453">
<rect width="18" height="18" fill="white"/>
</clipPath>
</defs>
</svg>
